
<?xml version="1.0" encoding="UTF-8"?>
<svg width="1440" height="3200" viewBox="0 0 1440 3200" xmlns="http://www.w3.org/2000/svg">
  <!-- Status Bar -->
  <rect x="0" y="0" width="1440" height="100" fill="#f5f5f5"/>
  
  <!-- Header -->
  <rect x="40" y="120" width="1360" height="200" fill="#e0e0e0"/>
  <rect x="60" y="140" width="300" height="40" fill="#c0c0c0"/>
  <rect x="60" y="190" width="200" height="30" fill="#c0c0c0"/>
  
  <!-- Wallet Card -->
  <rect x="40" y="340" width="1360" height="240" rx="20" fill="#d0d0d0"/>
  <rect x="60" y="380" width="200" height="30" fill="#c0c0c0"/>
  <rect x="60" y="420" width="300" height="50" fill="#c0c0c0"/>
  
  <!-- Quick Actions -->
  <rect x="40" y="600" width="320" height="150" rx="10" fill="#e0e0e0"/>
  <rect x="380" y="600" width="320" height="150" rx="10" fill="#e0e0e0"/>
  <rect x="720" y="600" width="320" height="150" rx="10" fill="#e0e0e0"/>
  <rect x="1060" y="600" width="320" height="150" rx="10" fill="#e0e0e0"/>
  
  <!-- Savings Section -->
  <rect x="40" y="780" width="1360" height="400" fill="#e0e0e0"/>
  <rect x="60" y="800" width="200" height="30" fill="#c0c0c0"/>
  <rect x="60" y="850" width="1320" height="100" rx="10" fill="#d0d0d0"/>
  <rect x="60" y="970" width="1320" height="100" rx="10" fill="#d0d0d0"/>
  
  <!-- Bottom Navigation -->
  <rect x="0" y="3100" width="1440" height="100" fill="#d0d0d0"/>
  <rect x="60" y="3120" width="240" height="60" fill="#c0c0c0"/>
  <rect x="360" y="3120" width="240" height="60" fill="#c0c0c0"/>
  <rect x="660" y="3120" width="240" height="60" fill="#c0c0c0"/>
  <rect x="960" y="3120" width="240" height="60" fill="#c0c0c0"/>
</svg>
