<?xml version="1.0" encoding="UTF-8"?>
<svg width="360" height="964" viewBox="0 0 360 964" fill="none" xmlns="http://www.w3.org/2000/svg">
  <!-- Background -->
  <rect width="360" height="964" fill="#FFFFFF"/>
  
  <!-- Bottom Navigation Bar -->
  <g transform="translate(0, 884)">
    <!-- Navigation Background -->
    <rect width="360" height="80" fill="#FFFFFF" stroke="#E5E7EB" stroke-width="1"/>
    
    <!-- Home Button -->
    <g transform="translate(20, 16)">
      <path d="M12 3L20 10V21H4V10L12 3Z" stroke="#DC0037" stroke-width="2" stroke-linecap="round" stroke-linejoin="round"/>
      <text x="32" y="44" font-family="Arial" font-size="11" fill="#DC0037">Home</text>
    </g>
    
    <!-- Circles Button -->
    <g transform="translate(95, 16)">
      <circle cx="12" cy="12" r="4" stroke="#6B7280" stroke-width="2"/>
      <path d="M16 21V19C16 17.9391 15.5786 16.9217 14.8284 16.1716C14.0783 15.4214 13.0609 15 12 15H8C6.93913 15 5.92172 15.4214 5.17157 16.1716C4.42143 16.9217 4 17.9391 4 19V21" stroke="#6B7280" stroke-width="2" stroke-linecap="round" stroke-linejoin="round"/>
      <text x="32" y="44" font-family="Arial" font-size="11" fill="#6B7280">Circles</text>
    </g>
    
    <!-- Add Button -->
    <g transform="translate(170, -8)">
      <circle cx="20" cy="20" r="20" fill="#DC0037"/>
      <path d="M20 12V28M12 20H28" stroke="white" stroke-width="2" stroke-linecap="round"/>
    </g>
    
    <!-- Pay Button -->
    <g transform="translate(245, 16)">
      <path d="M4 8C4 6.93913 4.42143 5.92172 5.17157 5.17157C5.92172 4.42143 6.93913 4 8 4H16C17.0609 4 18.0783 4.42143 18.8284 5.17157C19.5786 5.92172 20 6.93913 20 8V16C20 17.0609 19.5786 18.0783 18.8284 18.8284C18.0783 19.5786 17.0609 20 16 20H8C6.93913 20 5.92172 19.5786 5.17157 18.8284C4.42143 18.0783 4 17.0609 4 16V8Z" stroke="#6B7280" stroke-width="2" stroke-linecap="round" stroke-linejoin="round"/>
      <text x="32" y="44" font-family="Arial" font-size="11" fill="#6B7280">Pay</text>
    </g>
    
    <!-- Profile Button -->
    <g transform="translate(320, 16)">
      <circle cx="12" cy="8" r="4" stroke="#6B7280" stroke-width="2"/>
      <path d="M20 21V19C20 17.9391 19.5786 16.9217 18.8284 16.1716C18.0783 15.4214 17.0609 15 16 15H8C6.93913 15 5.92172 15.4214 5.17157 16.1716C4.42143 16.9217 4 17.9391 4 19V21" stroke="#6B7280" stroke-width="2" stroke-linecap="round" stroke-linejoin="round"/>
      <text x="32" y="44" font-family="Arial" font-size="11" fill="#6B7280">Profile</text>
    </g>
  </g>
</svg>