<?xml version="1.0" encoding="UTF-8" standalone="no"?>
<svg width="360" height="964" viewBox="0 0 360 964" fill="none" xmlns="http://www.w3.org/2000/svg">
  <!-- Background -->
  <rect width="360" height="964" fill="#FFFFFF"/>
  
  <!-- Top Header -->
  <rect width="360" height="64" fill="#DC0037"/>
  <text x="16" y="40" font-family="Inter" font-size="20" fill="white">Absa MoneyCircles</text>
  <circle cx="324" cy="32" r="24" fill="white" fill-opacity="0.1"/>
  <path d="M324 20C318.477 20 314 24.477 314 30C314 35.523 318.477 40 324 40C329.523 40 334 35.523 334 30C334 24.477 329.523 20 324 20ZM323.5 36C322.672 36 322 35.328 322 34.5C322 33.672 322.672 33 323.5 33C324.328 33 325 33.672 325 34.5C325 35.328 324.328 36 323.5 36ZM324.5 31H323.5V26H324.5V31Z" fill="white"/>
  
  <!-- User Info Section -->
  <rect y="64" width="360" height="120" fill="#F5F5F5"/>
  <text x="16" y="96" font-family="Inter" font-size="14" fill="#666666">Available Balance</text>
  <text x="16" y="136" font-family="Inter" font-size="32" font-weight="bold" fill="#000000">R 12,345.67</text>
  
  <!-- Quick Actions -->
  <g transform="translate(16, 200)">
    <rect width="328" height="56" rx="8" fill="#DC0037" fill-opacity="0.1"/>
    <text x="16" y="34" font-family="Inter" font-size="16" fill="#DC0037">Send Money</text>
  </g>
  <g transform="translate(16, 268)">
    <rect width="328" height="56" rx="8" fill="#DC0037" fill-opacity="0.1"/>
    <text x="16" y="34" font-family="Inter" font-size="16" fill="#DC0037">Request Money</text>
  </g>
  
  <!-- Account Cards -->
  <g transform="translate(16, 340)">
    <rect width="328" height="120" rx="8" fill="#FFFFFF" stroke="#E0E0E0"/>
    <text x="16" y="32" font-family="Inter" font-size="18" font-weight="bold" fill="#000000">Savings Circle</text>
    <text x="16" y="60" font-family="Inter" font-size="14" fill="#666666">Group savings with friends</text>
    <text x="16" y="96" font-family="Inter" font-size="24" font-weight="bold" fill="#DC0037">R 5,678.90</text>
  </g>
  
  <!-- Bottom Navigation -->
  <g transform="translate(0, 900)">
    <rect width="360" height="64" fill="#FFFFFF" stroke="#E0E0E0"/>
    <g transform="translate(30, 16)">
      <circle cx="20" cy="20" r="20" fill="#DC0037" fill-opacity="0.1"/>
      <text x="0" y="48" font-family="Inter" font-size="12" fill="#DC0037">Home</text>
    </g>
    <g transform="translate(120, 16)">
      <circle cx="20" cy="20" r="20" fill="#F5F5F5"/>
      <text x="0" y="48" font-family="Inter" font-size="12" fill="#666666">Circles</text>
    </g>
    <g transform="translate(210, 16)">
      <circle cx="20" cy="20" r="20" fill="#F5F5F5"/>
      <text x="0" y="48" font-family="Inter" font-size="12" fill="#666666">Pay</text>
    </g>
    <g transform="translate(300, 16)">
      <circle cx="20" cy="20" r="20" fill="#F5F5F5"/>
      <text x="0" y="48" font-family="Inter" font-size="12" fill="#666666">Profile</text>
    </g>
  </g>
</svg>