<?xml version="1.0" encoding="UTF-8"?>
<svg width="980" height="964" viewBox="0 0 980 964" fill="none" xmlns="http://www.w3.org/2000/svg">
  <!-- Background -->
  <rect width="980" height="964" fill="#FFFFFF"/>
  
  <!-- Bottom Navigation Bar -->
  <g transform="translate(0, 884)">
    <!-- Navigation Background -->
    <rect width="980" height="80" fill="#FFFFFF" stroke="#E5E7EB" stroke-width="1"/>
    
    <!-- Navigation Container -->
    <g transform="translate(90, 0)">
      <!-- Home Button -->
      <g transform="translate(60, 12)">
        <rect width="140" height="56" rx="12" fill="#FFFFFF" class="hover-bg"/>
        <path d="M52 15L60 22V33H44V22L52 15Z" stroke="#DC0037" stroke-width="2" stroke-linecap="round" stroke-linejoin="round"/>
        <text x="82" y="38" font-family="Arial" font-size="14" fill="#DC0037" text-anchor="middle">Home</text>
      </g>
      
      <!-- Circles Button -->
      <g transform="translate(240, 12)">
        <rect width="140" height="56" rx="12" fill="#FFFFFF" class="hover-bg"/>
        <circle cx="52" cy="24" r="4" stroke="#6B7280" stroke-width="2"/>
        <path d="M56 33V31C56 29.9391 55.5786 28.9217 54.8284 28.1716C54.0783 27.4214 53.0609 27 52 27H48C46.9391 27 45.9217 27.4214 45.1716 28.1716C44.4214 28.9217 44 29.9391 44 31V33" stroke="#6B7280" stroke-width="2" stroke-linecap="round" stroke-linejoin="round"/>
        <text x="82" y="38" font-family="Arial" font-size="14" fill="#6B7280" text-anchor="middle">Circles</text>
      </g>
      
      <!-- Add Button -->
      <g transform="translate(420, -4)">
        <circle cx="30" cy="30" r="30" fill="#DC0037"/>
        <path d="M30 18V42M18 30H42" stroke="white" stroke-width="2" stroke-linecap="round"/>
      </g>
      
      <!-- Pay Button -->
      <g transform="translate(600, 12)">
        <rect width="140" height="56" rx="12" fill="#FFFFFF" class="hover-bg"/>
        <path d="M44 20C44 18.9391 44.4214 17.9217 45.1716 17.1716C45.9217 16.4214 46.9391 16 48 16H56C57.0609 16 58.0783 16.4214 58.8284 17.1716C59.5786 17.9217 60 18.9391 60 20V28C60 29.0609 59.5786 30.0783 58.8284 30.8284C58.0783 31.5786 57.0609 32 56 32H48C46.9391 32 45.9217 31.5786 45.1716 30.8284C44.4214 30.0783 44 29.0609 44 28V20Z" stroke="#6B7280" stroke-width="2" stroke-linecap="round" stroke-linejoin="round"/>
        <text x="82" y="38" font-family="Arial" font-size="14" fill="#6B7280" text-anchor="middle">Pay</text>
      </g>
      
      <!-- Profile Button -->
      <g transform="translate(780, 12)">
        <rect width="140" height="56" rx="12" fill="#FFFFFF" class="hover-bg"/>
        <circle cx="52" cy="20" r="4" stroke="#6B7280" stroke-width="2"/>
        <path d="M60 33V31C60 29.9391 59.5786 28.9217 58.8284 28.1716C58.0783 27.4214 57.0609 27 56 27H48C46.9391 27 45.9217 27.4214 45.1716 28.1716C44.4214 28.9217 44 29.9391 44 31V33" stroke="#6B7280" stroke-width="2" stroke-linecap="round" stroke-linejoin="round"/>
        <text x="82" y="38" font-family="Arial" font-size="14" fill="#6B7280" text-anchor="middle">Profile</text>
      </g>
    </g>
    
    <!-- Hover Effects Style -->
    <style>
      .hover-bg:hover {
        fill: rgba(0, 0, 0, 0.05);
      }
    </style>
  </g>
</svg>