<?xml version="1.0" encoding="UTF-8" standalone="no"?>
<svg width="1440" height="964" viewBox="0 0 1440 964" fill="none" xmlns="http://www.w3.org/2000/svg">
  <!-- Background -->
  <rect width="1440" height="964" fill="#FFFFFF"/>
  
  <!-- Top Header -->
  <rect width="1440" height="96" fill="#DC0037"/>
  <text x="48" y="56" font-family="Inter" font-size="28" fill="white">Absa MoneyCircles</text>
  <circle cx="1360" cy="48" r="32" fill="white" fill-opacity="0.1"/>
  <path d="M1360 32C1352.27 32 1346 38.268 1346 46C1346 53.732 1352.27 60 1360 60C1367.73 60 1374 53.732 1374 46C1374 38.268 1367.73 32 1360 32ZM1359.5 54C1358.67 54 1358 53.328 1358 52.5C1358 51.672 1358.67 51 1359.5 51C1360.33 51 1361 51.672 1361 52.5C1361 53.328 1360.33 54 1359.5 54ZM1360.5 49H1359.5V42H1360.5V49Z" fill="white"/>
  
  <!-- User Info Section -->
  <rect y="96" width="1440" height="200" fill="#F5F5F5"/>
  <text x="48" y="144" font-family="Inter" font-size="18" fill="#666666">Available Balance</text>
  <text x="48" y="208" font-family="Inter" font-size="56" font-weight="bold" fill="#000000">R 12,345.67</text>
  
  <!-- Quick Actions Grid -->
  <g transform="translate(48, 328)">
    <rect width="672" height="80" rx="12" fill="#DC0037" fill-opacity="0.1"/>
    <text x="32" y="48" font-family="Inter" font-size="20" fill="#DC0037">Send Money</text>
  </g>
  <g transform="translate(720, 328)">
    <rect width="672" height="80" rx="12" fill="#DC0037" fill-opacity="0.1"/>
    <text x="32" y="48" font-family="Inter" font-size="20" fill="#DC0037">Request Money</text>
  </g>
  
  <!-- Account Cards Grid -->
  <g transform="translate(48, 440)">
    <rect width="672" height="200" rx="12" fill="#FFFFFF" stroke="#E0E0E0"/>
    <text x="32" y="48" font-family="Inter" font-size="24" font-weight="bold" fill="#000000">Savings Circle</text>
    <text x="32" y="88" font-family="Inter" font-size="18" fill="#666666">Group savings with friends</text>
    <text x="32" y="144" font-family="Inter" font-size="40" font-weight="bold" fill="#DC0037">R 5,678.90</text>
  </g>
  <g transform="translate(720, 440)">
    <rect width="672" height="200" rx="12" fill="#FFFFFF" stroke="#E0E0E0"/>
    <text x="32" y="48" font-family="Inter" font-size="24" font-weight="bold" fill="#000000">Personal Savings</text>
    <text x="32" y="88" font-family="Inter" font-size="18" fill="#666666">Your individual goals</text>
    <text x="32" y="144" font-family="Inter" font-size="40" font-weight="bold" fill="#DC0037">R 3,456.78</text>
  </g>
  
  <!-- Bottom Navigation -->
  <g transform="translate(0, 900)">
    <rect width="1440" height="64" fill="#FFFFFF" stroke="#E0E0E0"/>
    <g transform="translate(320, 16)">
      <circle cx="20" cy="20" r="20" fill="#DC0037" fill-opacity="0.1"/>
      <text x="0" y="48" font-family="Inter" font-size="16" fill="#DC0037">Home</text>
    </g>
    <g transform="translate(600, 16)">
      <circle cx="20" cy="20" r="20" fill="#F5F5F5"/>
      <text x="0" y="48" font-family="Inter" font-size="16" fill="#666666">Circles</text>
    </g>
    <g transform="translate(880, 16)">
      <circle cx="20" cy="20" r="20" fill="#F5F5F5"/>
      <text x="0" y="48" font-family="Inter" font-size="16" fill="#666666">Pay</text>
    </g>
    <g transform="translate(1160, 16)">
      <circle cx="20" cy="20" r="20" fill="#F5F5F5"/>
      <text x="0" y="48" font-family="Inter" font-size="16" fill="#666666">Profile</text>
    </g>
  </g>
</svg>