<?xml version="1.0" encoding="UTF-8" standalone="no"?>
<svg width="980" height="964" viewBox="0 0 980 964" fill="none" xmlns="http://www.w3.org/2000/svg">
  <!-- Background -->
  <rect width="980" height="964" fill="#FFFFFF"/>
  
  <!-- Top Header -->
  <rect width="980" height="80" fill="#DC0037"/>
  <text x="32" y="48" font-family="Inter" font-size="24" fill="white">My Circles</text>
  <circle cx="920" cy="40" r="28" fill="white" fill-opacity="0.1"/>
  <path d="M920 26C913.373 26 908 31.373 908 38C908 44.627 913.373 50 920 50C926.627 50 932 44.627 932 38C932 31.373 926.627 26 920 26ZM919.5 45C918.672 45 918 44.328 918 43.5C918 42.672 918.672 42 919.5 42C920.328 42 921 42.672 921 43.5C921 44.328 920.328 45 919.5 45ZM920.5 40H919.5V34H920.5V40Z" fill="white"/>
  
  <!-- Create Circle Button -->
  <g transform="translate(32, 96)">
    <rect width="916" height="64" rx="8" fill="#DC0037"/>
    <text x="408" y="40" font-family="Inter" font-size="18" fill="white">Create New Circle</text>
  </g>
  
  <!-- Circle Cards Grid -->
  <g transform="translate(32, 176)">
    <rect width="448" height="180" rx="8" fill="#FFFFFF" stroke="#E0E0E0"/>
    <text x="24" y="40" font-family="Inter" font-size="20" font-weight="bold" fill="#000000">Family Savings</text>
    <text x="24" y="72" font-family="Inter" font-size="16" fill="#666666">6 members</text>
    <text x="24" y="104" font-family="Inter" font-size="16" fill="#666666">Target: R 20,000</text>
    <text x="24" y="144" font-family="Inter" font-size="32" font-weight="bold" fill="#DC0037">R 12,345.67</text>
  </g>
  
  <g transform="translate(500, 176)">
    <rect width="448" height="180" rx="8" fill="#FFFFFF" stroke="#E0E0E0"/>
    <text x="24" y="40" font-family="Inter" font-size="20" font-weight="bold" fill="#000000">Holiday Fund</text>
    <text x="24" y="72" font-family="Inter" font-size="16" fill="#666666">4 members</text>
    <text x="24" y="104" font-family="Inter" font-size="16" fill="#666666">Target: R 15,000</text>
    <text x="24" y="144" font-family="Inter" font-size="32" font-weight="bold" fill="#DC0037">R 8,790.12</text>
  </g>
  
  <g transform="translate(32, 372)">
    <rect width="448" height="180" rx="8" fill="#FFFFFF" stroke="#E0E0E0"/>
    <text x="24" y="40" font-family="Inter" font-size="20" font-weight="bold" fill="#000000">Emergency Fund</text>
    <text x="24" y="72" font-family="Inter" font-size="16" fill="#666666">3 members</text>
    <text x="24" y="104" font-family="Inter" font-size="16" fill="#666666">Target: R 10,000</text>
    <text x="24" y="144" font-family="Inter" font-size="32" font-weight="bold" fill="#DC0037">R 4,567.89</text>
  </g>
  
  <g transform="translate(500, 372)">
    <rect width="448" height="180" rx="8" fill="#FFFFFF" stroke="#E0E0E0"/>
    <text x="24" y="40" font-family="Inter" font-size="20" font-weight="bold" fill="#000000">Wedding Fund</text>
    <text x="24" y="72" font-family="Inter" font-size="16" fill="#666666">5 members</text>
    <text x="24" y="104" font-family="Inter" font-size="16" fill="#666666">Target: R 25,000</text>
    <text x="24" y="144" font-family="Inter" font-size="32" font-weight="bold" fill="#DC0037">R 15,678.90</text>
  </g>
  
  <!-- Bottom Navigation -->
  <g transform="translate(0, 900)">
    <rect width="980" height="64" fill="#FFFFFF" stroke="#E0E0E0"/>
    <g transform="translate(200, 16)">
      <circle cx="20" cy="20" r="20" fill="#F5F5F5"/>
      <text x="0" y="48" font-family="Inter" font-size="14" fill="#666666">Home</text>
    </g>
    <g transform="translate(400, 16)">
      <circle cx="20" cy="20" r="20" fill="#DC0037" fill-opacity="0.1"/>
      <text x="0" y="48" font-family="Inter" font-size="14" fill="#DC0037">Circles</text>
    </g>
    <g transform="translate(600, 16)">
      <circle cx="20" cy="20" r="20" fill="#F5F5F5"/>
      <text x="0" y="48" font-family="Inter" font-size="14" fill="#666666">Pay</text>
    </g>
    <g transform="translate(800, 16)">
      <circle cx="20" cy="20" r="20" fill="#F5F5F5"/>
      <text x="0" y="48" font-family="Inter" font-size="14" fill="#666666">Profile</text>
    </g>
  </g>
</svg>